<svg id="Navy_Blackground_darker_copy" data-name="Navy Blackground darker copy" xmlns="http://www.w3.org/2000/svg" width="31.95" height="31.95" viewBox="0 0 1500 1500">
  <defs>
    <style>
      .cls-1 {
        fill: #0b1220;
      }

      .cls-2 {
        fill: #c3a46b;
      }

      .cls-2, .cls-3 {
        fill-rule: evenodd;
      }

      .cls-3 {
        fill: #9c7a3c;
      }

      .cls-4 {
        font-size: 195.098px;
        fill: #fff;
        text-anchor: end;
        font-family: Montserrat;
        font-weight: 700;
      }
    </style>
  </defs>
  <rect id="background" class="cls-1" width="1500" height="1500"/>
  <rect id="blue_only" data-name="blue only" class="cls-1" x="50" y="50" width="1400" height="1400" rx="233" ry="233"/>
  <path id="Star_Lighter" data-name="Star Lighter" class="cls-2" d="M1330.04,436.767c-734.322,136.144-380.958,157.555-994.224,594.6l-57.691,34.28,193.13-318.863L163,574.717l444.206-53.255,257-427.476,21.813,393.6,453.54-55.831Q1334.79,434.261,1330.04,436.767Z"/>
  <path id="Star_Shading_Dark" data-name="Star Shading Dark" class="cls-3" d="M900.191,696.632L916.74,998.6,649.2,845.859c-201.489,119.768-368.07,218.731-368.07,218.731C972.06,588.153,565.782,573.279,1347.58,429.978,1348.82,429.706,1136,556.394,900.191,696.632Z"/>
  <text id="TSI_copy_2" data-name="TSI copy 2" class="cls-4" transform="translate(1156.659 1425.221) scale(2.563)">TSI</text>
</svg>
