<svg id="Dark_Theme" data-name="Dark Theme" xmlns="http://www.w3.org/2000/svg" width="176.6" height="65.036" viewBox="0 0 2933.56 1080.34">
  <defs>
    <style>
      .cls-1 {
        fill: #fff;
      }

      .cls-1, .cls-2, .cls-3, .cls-4 {
        fill-rule: evenodd;
      }

      .cls-2 {
        fill: #2a3348;
      }

      .cls-3 {
        fill: #c3a46b;
      }

      .cls-4, .cls-5 {
        fill: #9c7a3c;
      }
    </style>
  </defs>
  <g id="Text_Vector" data-name="Text Vector">
    <path id="SKILLS_INITIATIVE" data-name="SKILLS INITIATIVE" class="cls-1" d="M2955.86,929.169v26.987h-121.1V794.7h118.33v26.987h-87.42v39.9h78.42v26.986h-78.42v40.6h90.19Zm-238.27,26.987L2653.7,794.7h33.22l47.51,127.09,47.98-127.09h31.83l-64.59,161.458h-32.06ZM2602.5,794.7h30.9V956.156h-30.9V794.7Zm-72.2,161.458h-31.14V822.146h-50.28V794.7h131.7v27.448H2530.3v134.01Zm-130.55-34.137h-78.88l-14.3,34.137h-32.06L2345.32,794.7h32.06l69.89,161.458h-33.22Zm-39.21-94.337-28.6,67.812h56.74ZM2224,794.7h30.9V956.156H2224V794.7Zm-72.2,161.458h-31.14V822.146h-50.28V794.7h131.7v27.448H2151.8v134.01ZM2017.79,794.7h30.91V956.156h-30.91V794.7Zm-152,50.283V956.156h-30.21V794.7h29.29L1948.14,906.1V794.7h29.98V956.156h-29.29ZM1765,794.7h30.9V956.156H1765V794.7Zm-156.5,59.855a178.761,178.761,0,0,0,18.57,6.343,203.417,203.417,0,0,1,26.87,9.687,47.987,47.987,0,0,1,17.88,14.3q7.365,9.461,7.38,24.91,0,14.764-7.96,25.718t-21.91,16.723Q1635.365,958,1617.38,958a100.409,100.409,0,0,1-36.9-7.035,104.609,104.609,0,0,1-31.37-18.8l12.91-26.295a94.46,94.46,0,0,0,27.45,17.761q15.225,6.459,28.37,6.458,12.915,0,20.3-4.959t7.38-13.493a15.468,15.468,0,0,0-4.5-11.418,33.485,33.485,0,0,0-11.41-7.265q-6.93-2.769-18.92-6.228a223.248,223.248,0,0,1-26.75-9.457,46.463,46.463,0,0,1-17.76-13.954q-7.4-9.342-7.38-24.565a41.151,41.151,0,0,1,7.49-24.565q7.5-10.492,21.22-16.261t31.72-5.766a107.26,107.26,0,0,1,31.02,4.613,105.068,105.068,0,0,1,27.33,12.455l-12.45,26.987a117.112,117.112,0,0,0-25.49-11.763q-13.035-4.152-22.95-4.152-11.07,0-17.53,4.152a13,13,0,0,0-6.46,11.532,15.179,15.179,0,0,0,4.5,11.187A35.1,35.1,0,0,0,1608.5,854.553ZM1438.86,794.7h30.91V928.247h69.65v27.909H1438.86V794.7Zm-124.78,0h30.91V928.247h69.65v27.909H1314.08V794.7Zm-70.58,0h30.91V956.156H1243.5V794.7Zm-60.43,161.458-50.75-69.2-25.37,27.909v41.287h-30.91V794.7h30.91v80.5l72.89-80.5h36.44l-62.04,68.274,65.96,93.184h-37.13Zm-207.012-101.6a178.751,178.751,0,0,0,18.567,6.343,203.254,203.254,0,0,1,26.875,9.687,47.956,47.956,0,0,1,17.87,14.3q7.38,9.461,7.38,24.91,0,14.764-7.95,25.718t-21.92,16.723Q1002.93,958,984.938,958a100.451,100.451,0,0,1-36.9-7.035,104.765,104.765,0,0,1-31.369-18.8l12.917-26.295a94.45,94.45,0,0,0,27.448,17.761q15.224,6.459,28.37,6.458,12.915,0,20.3-4.959t7.38-13.493a15.468,15.468,0,0,0-4.5-11.418,33.45,33.45,0,0,0-11.417-7.265q-6.921-2.769-18.914-6.228a223.388,223.388,0,0,1-26.756-9.457,46.463,46.463,0,0,1-17.76-13.954q-7.385-9.342-7.381-24.565a41.162,41.162,0,0,1,7.5-24.565q7.493-10.492,21.22-16.261t31.715-5.766a107.281,107.281,0,0,1,31.027,4.613,105.068,105.068,0,0,1,27.33,12.455l-12.46,26.987a116.826,116.826,0,0,0-25.48-11.763q-13.04-4.152-22.954-4.152-11.071,0-17.53,4.152a13.01,13.01,0,0,0-6.458,11.532,15.181,15.181,0,0,0,4.5,11.187A35.106,35.106,0,0,0,976.058,854.553Z" transform="translate(-27 -2)"/>
    <path id="TEXAS" class="cls-1" d="M1572.56,394.244v-69.2H1289.63v69.2h101.49V683.331h79.96V394.244h101.48Zm58.43-69.2V683.331h263.97V612.6H1710.95V538.275h160.43V470.1H1710.95V396.3h178.37V325.048H1630.99Zm468.48,106.1-68.17-106.1h-95.85L2047.7,499.833l-120.45,183.5h96.36l75.86-117.89,76.37,117.89h97.39L2152.26,497.782,2264,325.048h-96.36Zm563.3,252.182L2507.98,325.048h-77.4L2275.79,683.331h85.08l33.32-77.4h150.18l33.32,77.4h85.08ZM2514.13,535.712h-89.7l45.11-104.05Zm302.93-148.644q49.71,0,96.36,35.367L2953.91,364q-26.655-22.549-62.53-34.854a220.114,220.114,0,0,0-71.76-12.3q-54.855,0-91.49,27.679-36.66,27.678-36.65,78.678t28.96,74.835q28.95,23.833,91.49,38.7,39.465,9.742,52.8,19.221,13.32,9.49,13.32,25.629t-12.56,25.628q-12.555,9.49-34.59,9.482-49.215,0-107.13-50.744l-47.67,58.433q68.16,63.045,153.26,63.045,58.935,0,95.08-29.985t36.14-78.166q0-48.173-28.2-73.3-28.185-25.107-79.19-37.673t-65.09-21.784Q2774,437.3,2774,421.667t11.53-25.116q11.535-9.478,31.53-9.483h0Z" transform="translate(-27 -2)"/>
  </g>
  <g id="Star">
    <g id="Star-2" data-name="Star">
      <path id="Ellipse_Background_copy" data-name="Ellipse Background copy" class="cls-2" d="M709.294,67.947c327.8-42.985,513.116,164.7,399.186,438.638C1007.89,748.443,717.344,944.083,449,972.456,182.131,1000.67,1.549,858.25,37.682,631.95,78.842,374.158,387.006,110.209,709.294,67.947Z" transform="translate(-27 -2)"/>
      <path id="Star_Lighter" data-name="Star Lighter" class="cls-3" d="M728.207,1.986l21.813,393.6,463.97-57.115L762.2,605.522l18.223,300.056L511.831,753.915,142.125,973.655,335.254,654.786,27,482.717l444.206-53.255Z" transform="translate(-27 -2)"/>
    </g>
    <g id="Star_Shading" data-name="Star Shading">
      <path id="Star_Shading_Dark" data-name="Star Shading Dark" class="cls-4" d="M765.191,607.632L781.739,909.6,514.2,756.859c-201.489,119.768-368.07,218.733-368.07,218.733C837.06,499.153,430.782,484.279,1212.58,340.978,1213.82,340.706,1001,467.394,765.191,607.632Z" transform="translate(-27 -2)"/>
    </g>
  </g>
  <rect id="Base_Line" data-name="Base Line" class="cls-5" x="106.938" y="1055.34" width="2822.372" height="25"/>
</svg>
