<svg id="star_2.0" data-name="star 2.0" xmlns="http://www.w3.org/2000/svg" width="1187" height="973.656" viewBox="0 0 1187 973.656">
  <defs>
    <style>
      .cls-1 {
        fill: #c3a46b;
      }

      .cls-1, .cls-2 {
        fill-rule: evenodd;
      }

      .cls-2 {
        fill: #9c7a3c;
      }
    </style>
  </defs>
  <path id="Star_Lighter_Full_v1" data-name="Star Lighter Full v1" class="cls-1" d="M701.207-.014l21.813,393.6,463.97-57.115L735.2,603.522l18.223,300.056L484.831,751.915,115.125,971.655,308.254,652.786,0,480.717l444.206-53.255Z"/>
  <path id="Star_Shading_Dark_v2" data-name="Star Shading Dark v2" class="cls-2" d="M116,973s66.749-45.424,144-100c53.718-32.553,126.366-100.366,156-130,43.378-38.438,83.109-82.109,99-98,28.991-26.628,49.09-57.09,74-82,58.462-64.522,56.5-58.185,109-92,57.25-34,65.486-31.257,105-45s120-33,120-33l115-26,99-19,41.68-8.506,8.31-1.023L735.2,605.522l18.223,300.056L484.831,753.915,115.125,973.655Z"/>
</svg>
