<svg id="Light_Theme" data-name="Light Theme" xmlns="http://www.w3.org/2000/svg" width="176.6" height="65.036" viewBox="0 0 2933.56 1080.34">
  <defs>
    <style>
      .cls-1 {
        fill: #0b1220;
      }

      .cls-1, .cls-2, .cls-3 {
        fill-rule: evenodd;
      }

      .cls-2 {
        fill: #c3a46b;
      }

      .cls-3, .cls-4 {
        fill: #9c7a3c;
      }
    </style>
  </defs>
  <g id="Text_Vector" data-name="Text Vector">
    <path id="SKILLS_INITIATIVE" data-name="SKILLS INITIATIVE" class="cls-1" d="M1032.68,836.216l12.46-26.987a105.068,105.068,0,0,0-27.33-12.455,107.281,107.281,0,0,0-31.027-4.613q-17.991,0-31.715,5.766t-21.22,16.261a41.162,41.162,0,0,0-7.5,24.565q0,15.223,7.381,24.565a46.463,46.463,0,0,0,17.76,13.954,223.388,223.388,0,0,0,26.756,9.457q11.991,3.46,18.914,6.228a33.45,33.45,0,0,1,11.417,7.265,15.468,15.468,0,0,1,4.5,11.418q0,8.535-7.38,13.493-7.4,4.962-20.3,4.959-13.147,0-28.37-6.458a94.45,94.45,0,0,1-27.448-17.761l-12.916,26.295a104.747,104.747,0,0,0,31.368,18.8,100.451,100.451,0,0,0,36.9,7.035q17.991,0,31.942-5.766t21.92-16.723q7.95-10.951,7.95-25.718,0-15.45-7.38-24.91a47.966,47.966,0,0,0-17.87-14.3,203.254,203.254,0,0,0-26.875-9.687,178.834,178.834,0,0,1-18.567-6.343,35.117,35.117,0,0,1-11.3-7.381,15.181,15.181,0,0,1-4.5-11.187,13.01,13.01,0,0,1,6.458-11.532q6.456-4.152,17.53-4.152,9.915,0,22.954,4.152a116.873,116.873,0,0,1,25.48,11.763h0Zm121.56,26.756,62.04-68.274h-36.44l-72.89,80.5V794.7h-30.91V956.156h30.91V914.869l25.37-27.909,50.75,69.2h37.13Zm89.26,93.184h30.91V794.7H1243.5V956.156Zm70.58,0h100.56V928.247h-69.65V794.7h-30.91V956.156Zm124.78,0h100.56V928.247h-69.65V794.7h-30.91V956.156Zm226.27-119.94,12.45-26.987a105.068,105.068,0,0,0-27.33-12.455,107.26,107.26,0,0,0-31.02-4.613q-18,0-31.72,5.766t-21.22,16.261a41.151,41.151,0,0,0-7.49,24.565q0,15.223,7.38,24.565a46.463,46.463,0,0,0,17.76,13.954,223.248,223.248,0,0,0,26.75,9.457q12,3.46,18.92,6.228a33.485,33.485,0,0,1,11.41,7.265,15.468,15.468,0,0,1,4.5,11.418q0,8.535-7.38,13.493t-20.3,4.959q-13.14,0-28.37-6.458a94.46,94.46,0,0,1-27.45-17.761l-12.91,26.295a104.609,104.609,0,0,0,31.37,18.8,100.409,100.409,0,0,0,36.9,7.035q18,0,31.95-5.766t21.91-16.723q7.95-10.951,7.96-25.718,0-15.45-7.38-24.91a48,48,0,0,0-17.88-14.3,202.889,202.889,0,0,0-26.87-9.687,178.761,178.761,0,0,1-18.57-6.343,35.1,35.1,0,0,1-11.3-7.381,15.179,15.179,0,0,1-4.5-11.187,13,13,0,0,1,6.46-11.532q6.45-4.152,17.53-4.152,9.915,0,22.95,4.152a117.159,117.159,0,0,1,25.49,11.763h0ZM1765,956.156h30.9V794.7H1765V956.156ZM1948.14,906.1L1864.87,794.7h-29.29V956.156h30.21V844.981l83.04,111.175h29.29V794.7h-29.98V906.1Zm69.65,50.052h30.91V794.7h-30.91V956.156Zm52.59-134.01h50.28v134.01h31.14V822.146h50.28V794.7h-131.7v27.448ZM2224,956.156h30.9V794.7H2224V956.156Zm223.27,0L2377.38,794.7h-32.06l-70.81,161.458h32.06l14.3-34.137h78.88l14.3,34.137h33.22Zm-86.73-128.474,28.14,67.812h-56.74Zm88.34-5.536h50.28v134.01h31.14V822.146h50.29V794.7H2448.88v27.448Zm153.62,134.01h30.9V794.7h-30.9V956.156Zm115.09,0h32.06L2814.24,794.7h-31.83l-47.98,127.09L2686.92,794.7H2653.7Zm117.17,0h121.1V929.169h-90.19v-40.6h78.42V861.588h-78.42v-39.9h87.42V794.7H2834.76V956.156Z" transform="translate(-27 -2)"/>
    <path id="TEXAS" class="cls-1" d="M1572.56,394.244v-69.2H1289.63v69.2h101.49V683.331h79.96V394.244h101.48Zm58.43-69.2V683.331h263.97V612.6H1710.95V538.275h160.43V470.1H1710.95V396.3h178.37V325.048H1630.99Zm468.48,106.1-68.17-106.1h-95.85L2047.7,499.833l-120.45,183.5h96.36l75.86-117.89,76.37,117.89h97.39L2152.26,497.782,2264,325.048h-96.36Zm563.3,252.182L2507.98,325.048h-77.4L2275.79,683.331h85.08l33.32-77.4h150.18l33.32,77.4h85.08ZM2514.13,535.712h-89.7l45.11-104.05Zm302.93-148.644q49.71,0,96.36,35.367L2953.91,364q-26.655-22.548-62.53-34.854a220.114,220.114,0,0,0-71.76-12.3q-54.855,0-91.49,27.679-36.66,27.678-36.65,78.678t28.96,74.835q28.95,23.833,91.49,38.7,39.465,9.742,52.8,19.221,13.32,9.49,13.32,25.629t-12.56,25.628q-12.555,9.49-34.59,9.482-49.215,0-107.13-50.744l-47.67,58.433q68.16,63.045,153.26,63.045,58.935,0,95.08-29.985t36.14-78.166q0-48.173-28.2-73.3-28.185-25.107-79.19-37.673t-65.09-21.784Q2774,437.3,2774,421.667t11.53-25.116q11.535-9.478,31.53-9.483h0Z" transform="translate(-27 -2)"/>
  </g>
  <g id="Star">
    <g id="Star-2" data-name="Star">
      <path id="Ellipse_Background" data-name="Ellipse Background" class="cls-1" d="M709.294,67.947c327.8-42.985,513.116,164.7,399.186,438.638C1007.89,748.443,717.344,944.083,449,972.456,182.131,1000.67,1.549,858.25,37.682,631.95,78.842,374.158,387.006,110.209,709.294,67.947Z" transform="translate(-27 -2)"/>
      <path id="Star_Lighter" data-name="Star Lighter" class="cls-2" d="M728.207,1.986l21.813,393.6,463.97-57.115L762.2,605.522l18.223,300.056L511.831,753.915,142.125,973.655,335.254,654.786,27,482.717l444.206-53.255Z" transform="translate(-27 -2)"/>
    </g>
    <g id="Star_Shading" data-name="Star Shading">
      <path id="Star_Shading_Dark" data-name="Star Shading Dark" class="cls-3" d="M765.191,607.632L781.74,909.6,514.2,756.859c-201.489,119.768-368.07,218.733-368.07,218.733C837.06,499.153,430.782,484.28,1212.58,340.978,1213.82,340.706,1001,467.394,765.191,607.632Z" transform="translate(-27 -2)"/>
    </g>
  </g>
  <rect id="Base_Line" data-name="Base Line" class="cls-4" x="106.938" y="1055.34" width="2822.372" height="25"/>
</svg>
