<svg id="tsi-logo-tn-icon" xmlns="http://www.w3.org/2000/svg" width="31.95" height="31.95" viewBox="0 0 1500 1500">
  <defs>
    <style>
      .cls-1 {
        fill: #0b1220;
      }

      .cls-2 {
        fill: #9c7a3c;
      }

      .cls-2, .cls-3 {
        fill-rule: evenodd;
      }

      .cls-3 {
        fill: #c3a46b;
      }
    </style>
  </defs>
  <g id="Background">
    <rect id="Background-Interior" class="cls-1" x="50" y="50" width="1400" height="1400" rx="233" ry="233"/>
  </g>
  <g id="Border">
    <g id="Border_v2" data-name="Border v2">
      <path id="Border_dark-gold_Full_v2" data-name="Border/dark-gold Full v2" class="cls-2" d="M1250,1500H250C111.929,1500,0,1388.07,0,1250V250C0,111.929,111.929,0,250,0H1250c138.07,0,250,111.929,250,250V1250C1500,1388.07,1388.07,1500,1250,1500ZM1445,288c0-128.682-104.32-233-233-233H288C159.318,55,55,159.318,55,288v924c0,128.68,104.318,233,233,233h924c128.68,0,233-104.32,233-233V288Z"/>
      <path id="Border_Top_v2" data-name="Border Top v2" class="cls-3" d="M1445,413.3V288c0-128.682-104.32-233-233-233H288C159.318,55,55,159.318,55,288v895.5c-22.15,10.53-41.114,19.46-55,25.97V250C0,111.929,111.929,0,250,0H1250c138.07,0,250,111.929,250,250V404.878Z"/>
    </g>
  </g>
  <g id="Star">
    <g id="star_v2" data-name="star v2">
      <path id="Star_Lighter_Full_v1" data-name="Star Lighter Full v1" class="cls-3" d="M865.419,228.985L888.8,651.08l497.2-61.25L901.845,876.215l19.528,321.775L633.549,1035.35,237.369,1271,444.328,929.045,114,744.519l476.014-57.111Z"/>
      <path id="Star_Shading_Dark_v2" data-name="Star Shading Dark v2" class="cls-2" d="M238.307,1270.3s71.529-48.72,154.311-107.24c57.565-34.91,135.415-107.64,167.171-139.41,46.485-41.226,89.061-88.059,106.09-105.1,31.066-28.555,52.605-61.223,79.3-87.936,62.648-69.194,60.542-62.4,116.8-98.66,61.349-36.463,70.175-33.52,112.519-48.258s128.6-35.389,128.6-35.389l123.23-27.883,106.09-20.375,44.66-9.122,8.91-1.1L901.845,876.215l19.528,321.775L633.549,1035.35,237.369,1271Z"/>
    </g>
  </g>
</svg>
